<?xml version="1.0" standalone="no"?><!DOCTYPE svg PUBLIC "-//W3C//DTD SVG 1.1//EN" "http://www.w3.org/Graphics/SVG/1.1/DTD/svg11.dtd"><svg t="1541552217005" class="icon" style="" viewBox="0 0 1024 1024" version="1.1" xmlns="http://www.w3.org/2000/svg" p-id="1451" xmlns:xlink="http://www.w3.org/1999/xlink" width="200" height="200"><defs><style type="text/css"></style></defs><path d="M736.232934 118.192202h-448.922521L62.848129 506.970675 287.309389 895.749148h448.922521l224.46126-388.778473L736.232934 118.192202zM714.634073 858.33945H308.90825l-202.862399-351.368775L308.909274 155.602924h405.725823l202.862399 351.368775L714.634073 858.33945z" fill="" p-id="1452"></path><path d="M322.379509 442.587742l59.64644 95.875598h0.400339V442.587742h29.423393v142.911866h-31.424065l-59.446782-95.674916h-0.400339v95.674916H291.155103V442.587742h31.224406zM546.354424 442.587742v26.420337h-75.459324v30.62441h69.254579v24.419665h-69.254579v35.027117h77.060681v26.421361H439.471035V442.587742h106.883389zM674.053402 585.499608l-24.21796-97.276273h-0.401363l-23.818644 97.276273h-31.825427L555.96154 442.587742h31.424065l22.617627 97.276273h0.400339l24.820004-97.276273h29.422369l24.419665 98.477291h0.400339l23.418305-98.477291h30.824068l-38.430512 142.911866h-31.224407z" fill="" p-id="1453"></path></svg>